<svg xmlns="http://www.w3.org/2000/svg" xmlns:xlink="http://www.w3.org/1999/xlink" width="100" zoomAndPan="magnify" viewBox="0 0 75 74.999997" height="100" preserveAspectRatio="xMidYMid meet" version="1.0"><defs><g/><clipPath id="d032d582bd"><path d="M 24 0.640625 L 64.359375 0.640625 L 64.359375 56 L 24 56 Z M 24 0.640625 " clip-rule="nonzero"/></clipPath><clipPath id="0cdd3e1812"><rect x="0" width="41" y="0" height="56"/></clipPath><clipPath id="9032456126"><rect x="0" width="65" y="0" height="65"/></clipPath></defs><g transform="matrix(1, 0, 0, 1, 5, 2)"><g clip-path="url(#9032456126)"><g fill="#0097b2" fill-opacity="1"><g transform="translate(0.710262, 50.687835)"><g><path d="M 31.6875 -10.765625 C 31.6875 -9.035156 31.351562 -7.425781 30.6875 -5.9375 C 30.03125 -4.457031 29.082031 -3.175781 27.84375 -2.09375 C 26.601562 -1.019531 25.085938 -0.167969 23.296875 0.453125 C 21.503906 1.085938 19.476562 1.40625 17.21875 1.40625 C 13.945312 1.40625 11.046875 0.9375 8.515625 0 C 5.992188 -0.9375 3.691406 -2.265625 1.609375 -3.984375 L 4.953125 -8.609375 C 6.597656 -7.347656 8.394531 -6.3125 10.34375 -5.5 C 12.300781 -4.695312 14.429688 -4.296875 16.734375 -4.296875 C 19.597656 -4.296875 21.6875 -4.90625 23 -6.125 C 24.3125 -7.351562 24.96875 -9.0625 24.96875 -11.25 L 24.96875 -35.828125 L 31.6875 -35.828125 Z M 31.6875 -10.765625 "/></g></g></g><g clip-path="url(#d032d582bd)"><g transform="matrix(1, 0, 0, 1, 24, -0.00000000000000222)"><g clip-path="url(#0cdd3e1812)"><g fill="#0097b2" fill-opacity="1"><g transform="translate(0.640343, 43.717375)"><g><path d="M 32.84375 0 L 28.765625 -7.625 L 10.6875 -7.625 L 6.75 0 L 0.640625 0 L 17.296875 -30.796875 L 22.109375 -30.796875 L 39.03125 0 Z M 19.5625 -24.796875 L 12.859375 -11.84375 L 26.5 -11.84375 Z M 19.5625 -24.796875 "/></g></g></g></g></g></g></g></g></svg>